PathFileType	4	(X/Y/Z)	 marche_02.trc
DataRate	CameraRate	NumFrames	NumMarkers	Units	OrigDataRate	OrigDataStartFrame	OrigNumFrames
200	200	7	44	m	200	100	396
Frame#	Time	RCAL			RMT1			RIMAL			REMAL			RMT5			LCAL			LMT1			LIMAL			LEMAL			LMT5			RTTA			LTTA			RICE			RECE			RGT			RAT			LICE			LECE			LGT			LASIS			RASIS			RPSIS			LPSIS			OMP			L4			XYP			C7			STE			FRO			RTEMP			LTEMP			RACR			RLEC			RMEC			LACR			LLEC			LMEC			RLS			RRS			LLS			LRS			RFIN			LFIN			C_43			
		X1	Y1	Z1	X2	Y2	Z2	X3	Y3	Z3	X4	Y4	Z4	X5	Y5	Z5	X6	Y6	Z6	X7	Y7	Z7	X8	Y8	Z8	X9	Y9	Z9	X10	Y10	Z10	X11	Y11	Z11	X12	Y12	Z12	X13	Y13	Z13	X14	Y14	Z14	X15	Y15	Z15	X16	Y16	Z16	X17	Y17	Z17	X18	Y18	Z18	X19	Y19	Z19	X20	Y20	Z20	X21	Y21	Z21	X22	Y22	Z22	X23	Y23	Z23	X24	Y24	Z24	X25	Y25	Z25	X26	Y26	Z26	X27	Y27	Z27	X28	Y28	Z28	X29	Y29	Z29	X30	Y30	Z30	X31	Y31	Z31	X32	Y32	Z32	X33	Y33	Z33	X34	Y34	Z34	X35	Y35	Z35	X36	Y36	Z36	X37	Y37	Z37	X38	Y38	Z38	X39	Y39	Z39	X40	Y40	Z40	X41	Y41	Z41	X42	Y42	Z42	X43	Y43	Z43	X44	Y44	Z44	
100	0.5000	-0.023005	0.048643	0.412234	0.199473	0.045381	0.432826	0.062910	0.095599	0.379943	0.032034	0.069032	0.477540	0.146910	0.037646	0.503818	-0.241317	0.249154	0.317671	-0.128355	0.084547	0.287559	-0.150632	0.213995	0.337570	-0.198313	0.229357	0.244296	-0.163823	0.107991	0.217854	0.161214	0.378676	0.463999	0.095480	0.358902	0.252558	0.116477	0.470641	0.388596	0.129914	0.472875	0.523673	0.047913	0.832580	0.578949	0.206019	0.676876	0.500292	0.123498	0.446265	0.338319	0.100133	0.460170	0.196095	0.026790	0.839631	0.201962	0.106962	0.934969	0.253031	0.139019	0.939067	0.501643	-0.074103	0.942129	0.438564	-0.079912	0.939473	0.353567	0.191271	0.993241	0.372198	-0.092473	1.195593	0.390193	0.148709	1.189844	0.377421	-0.063101	1.380652	0.383713	0.111330	1.354560	0.379096	0.200176	1.596173	0.380274	0.145998	1.575177	0.458173	0.143609	1.561297	0.294233	0.035846	1.394499	0.562119	-0.028443	1.079635	0.661052	-0.046168	1.054311	0.568401	0.024842	1.388331	0.204505	0.010163	1.065539	0.096829	-0.003571	1.043987	0.196802	0.052207	0.830727	0.673982	0.117953	0.838051	0.604731	0.212833	0.890236	0.124747	0.243918	0.940207	0.179106	0.119784	0.747040	0.672145	0.301567	0.882560	0.138961	0.000000	0.000000	0.000000	
101	0.5050	-0.022939	0.048766	0.412125	0.199422	0.045388	0.432813	0.062991	0.095785	0.379941	0.032556	0.069473	0.477387	0.146902	0.037633	0.503789	-0.226166	0.244572	0.317382	-0.109623	0.083437	0.288176	-0.135133	0.211095	0.338211	-0.183028	0.225884	0.245228	-0.146809	0.105481	0.218491	0.162341	0.378291	0.463965	0.108608	0.360145	0.252331	0.118178	0.469756	0.389127	0.131267	0.472846	0.523936	0.051921	0.832862	0.578674	0.210238	0.676254	0.501162	0.139394	0.449344	0.338765	0.111113	0.461769	0.196493	0.033635	0.841360	0.202427	0.113389	0.935613	0.253248	0.144694	0.939490	0.502263	-0.068089	0.943020	0.438643	-0.073687	0.940069	0.353600	0.197854	0.994179	0.373066	-0.086125	1.196267	0.390482	0.154880	1.190208	0.377661	-0.056501	1.381327	0.384121	0.117745	1.355199	0.379258	0.206717	1.596609	0.380139	0.152609	1.575698	0.458037	0.150350	1.562148	0.294134	0.042756	1.395701	0.562198	-0.019300	1.080826	0.662383	-0.037817	1.055040	0.569808	0.030717	1.388844	0.204757	0.013253	1.065546	0.098192	-0.001863	1.044601	0.198315	0.064363	0.832628	0.675039	0.128947	0.840383	0.605587	0.212087	0.886534	0.124349	0.244443	0.935623	0.179077	0.132795	0.749974	0.673156	0.300861	0.876597	0.138147	0.000000	0.000000	0.000000	
102	0.5100	-0.022836	0.048882	0.412035	0.199419	0.045397	0.432794	0.063090	0.095859	0.379904	0.031979	0.069687	0.478301	0.147106	0.037734	0.503592	-0.211487	0.240108	0.316936	-0.090520	0.081933	0.288919	-0.121340	0.210300	0.339204	-0.168323	0.222746	0.245490	-0.129842	0.102764	0.218907	0.163420	0.377931	0.463980	0.121520	0.361347	0.252402	0.121250	0.469450	0.389584	0.132719	0.472835	0.524128	0.057646	0.833952	0.578837	0.214398	0.674970	0.501951	0.151791	0.451511	0.338873	0.122048	0.463156	0.196660	0.040962	0.842171	0.201997	0.119711	0.936665	0.254062	0.150280	0.939853	0.502713	-0.062123	0.943769	0.438707	-0.067528	0.940733	0.353565	0.204254	0.995473	0.374137	-0.079589	1.196755	0.391172	0.160922	1.190803	0.377752	-0.050171	1.382136	0.384463	0.124000	1.355957	0.379398	0.213378	1.597138	0.380258	0.159306	1.576067	0.457835	0.156970	1.562708	0.294040	0.049319	1.396727	0.562141	-0.010601	1.081948	0.663912	-0.029933	1.055627	0.571195	0.036599	1.389274	0.204928	0.016527	1.065757	0.099609	0.001542	1.045468	0.199923	0.076295	0.834720	0.675883	0.139873	0.842379	0.606172	0.211319	0.882154	0.124279	0.245011	0.930477	0.179032	0.146710	0.753917	0.673788	0.299412	0.869960	0.137543	0.000000	0.000000	0.000000	
103	0.5150	-0.022435	0.049028	0.412005	0.199461	0.045389	0.432800	0.063080	0.096161	0.380018	0.031139	0.069211	0.478588	0.147328	0.037857	0.503506	-0.197512	0.234628	0.317282	-0.071252	0.080534	0.289726	-0.108014	0.209588	0.339943	-0.153166	0.219569	0.245495	-0.112258	0.100061	0.219401	0.164380	0.377572	0.464187	0.134238	0.362519	0.252889	0.125908	0.469232	0.389291	0.134305	0.472637	0.524475	0.063901	0.834772	0.580423	0.218275	0.673719	0.502470	0.160030	0.452310	0.338612	0.133152	0.464491	0.196677	0.048254	0.842831	0.202272	0.126505	0.937632	0.254795	0.156029	0.940357	0.503572	-0.056206	0.944442	0.438649	-0.061414	0.941255	0.353518	0.210704	0.996856	0.375161	-0.072924	1.197206	0.392056	0.167128	1.191535	0.377552	-0.043812	1.382803	0.384740	0.130761	1.356429	0.379294	0.219965	1.597596	0.380137	0.166099	1.576611	0.457812	0.163511	1.563104	0.293926	0.055886	1.397667	0.562219	-0.001724	1.083156	0.665301	-0.020906	1.057046	0.571832	0.042443	1.389714	0.204885	0.019544	1.065664	0.101293	0.005934	1.046314	0.201549	0.088114	0.836882	0.676920	0.151420	0.844980	0.606941	0.210629	0.878862	0.123939	0.245471	0.925307	0.179096	0.160498	0.757705	0.674328	0.298077	0.863388	0.136829	0.000000	0.000000	0.000000	
104	0.5200	-0.022506	0.049008	0.412271	0.199468	0.045355	0.432844	0.063173	0.096405	0.380078	0.031113	0.069572	0.478672	0.147429	0.038003	0.503625	-0.182895	0.229203	0.317669	-0.051826	0.079004	0.290403	-0.092175	0.206658	0.339448	-0.136674	0.215305	0.245556	-0.093982	0.097090	0.219845	0.165216	0.377268	0.464417	0.146977	0.364307	0.252882	0.131968	0.469038	0.389321	0.135611	0.472327	0.524536	0.069572	0.835185	0.581317	0.222087	0.672671	0.503095	0.167064	0.452747	0.338900	0.144185	0.465988	0.197059	0.055541	0.843511	0.202549	0.132498	0.938602	0.255271	0.161764	0.941126	0.504395	-0.050151	0.945113	0.438566	-0.055247	0.941738	0.353314	0.216549	0.997675	0.376142	-0.066489	1.197764	0.392455	0.173692	1.192217	0.377557	-0.037291	1.383278	0.385217	0.137072	1.356994	0.379035	0.226735	1.597995	0.379948	0.172760	1.576864	0.457736	0.170026	1.563372	0.293916	0.062737	1.398526	0.562270	0.006913	1.084245	0.666506	-0.012203	1.058111	0.573445	0.048324	1.390004	0.204895	0.022721	1.065853	0.102750	0.010157	1.046992	0.203270	0.100085	0.838885	0.677669	0.163204	0.848483	0.607522	0.209957	0.876131	0.123091	0.245902	0.920213	0.178956	0.173355	0.759975	0.675819	0.297292	0.857698	0.135962	0.000000	0.000000	0.000000	
105	0.5250	-0.022398	0.049201	0.412240	0.199516	0.045405	0.432882	0.063267	0.096510	0.380021	0.031531	0.069907	0.478654	0.147183	0.038020	0.503895	-0.167669	0.223595	0.317839	-0.032142	0.077608	0.291131	-0.074973	0.202585	0.339234	-0.119449	0.210595	0.245652	-0.075453	0.094189	0.219860	0.166066	0.377012	0.464696	0.160106	0.365772	0.252396	0.134029	0.470577	0.390353	0.136845	0.471961	0.524675	0.074732	0.835504	0.581416	0.225890	0.671827	0.503750	0.174142	0.453504	0.339003	0.155022	0.467500	0.197455	0.062239	0.844688	0.202830	0.138391	0.939303	0.255804	0.167563	0.941753	0.504809	-0.044270	0.945807	0.438337	-0.049253	0.942118	0.353050	0.222452	0.998346	0.377555	-0.059775	1.198225	0.392743	0.179954	1.192730	0.377751	-0.030834	1.383755	0.385692	0.143259	1.357314	0.379066	0.233397	1.598113	0.379813	0.179279	1.577253	0.457739	0.176420	1.563718	0.293794	0.069473	1.399540	0.562347	0.015763	1.085126	0.667852	-0.003987	1.058577	0.574536	0.054102	1.390275	0.204927	0.025731	1.065745	0.104301	0.013962	1.047624	0.204814	0.112068	0.840846	0.678700	0.175177	0.851610	0.607966	0.209156	0.872945	0.122527	0.246030	0.915181	0.178799	0.186166	0.763158	0.676854	0.296715	0.852525	0.134622	0.000000	0.000000	0.000000	
106	0.5300	-0.022252	0.049436	0.412169	0.199487	0.045378	0.432914	0.063408	0.096800	0.380094	0.031739	0.070204	0.478595	0.146913	0.038006	0.504011	-0.152122	0.217831	0.317902	-0.012157	0.076014	0.291856	-0.057827	0.198768	0.339308	-0.102080	0.205987	0.245676	-0.056539	0.091573	0.220024	0.166852	0.376760	0.465036	0.173086	0.367243	0.252458	0.133651	0.471281	0.391129	0.138175	0.471652	0.524794	0.079605	0.835843	0.581226	0.229564	0.670829	0.504337	0.181430	0.455234	0.339132	0.165829	0.468841	0.197781	0.069275	0.845516	0.202456	0.144497	0.939854	0.256190	0.173409	0.942370	0.505219	-0.038593	0.946573	0.438070	-0.043325	0.942478	0.352805	0.228166	0.999162	0.378959	-0.053046	1.198327	0.393408	0.186396	1.193063	0.378010	-0.024431	1.384233	0.385874	0.149462	1.357552	0.379066	0.239823	1.598026	0.379418	0.186097	1.577742	0.457525	0.183071	1.563941	0.293712	0.076346	1.400287	0.562398	0.024457	1.086026	0.669063	0.004393	1.059104	0.575724	0.060198	1.390284	0.204987	0.028706	1.065562	0.106034	0.017568	1.048231	0.206216	0.123909	0.842995	0.679448	0.186871	0.854682	0.608426	0.207920	0.868746	0.122315	0.246106	0.909787	0.178850	0.199295	0.766330	0.677615	0.295719	0.847495	0.133271	0.000000	0.000000	0.000000	
